<mxfile host="app.diagrams.net" modified="2022-04-29T14:56:16.135Z" agent="5.0 (Windows NT 10.0; Win64; x64) AppleWebKit/537.36 (KHTML, like Gecko) Chrome/100.0.4896.127 Safari/537.36" etag="TFSBo7GTmpqzj347VFP9" version="17.4.6" type="github">
  <diagram id="C5RBs43oDa-KdzZeNtuy" name="Page-1">
    <mxGraphModel dx="865" dy="3756" grid="1" gridSize="10" guides="1" tooltips="1" connect="1" arrows="1" fold="1" page="1" pageScale="1" pageWidth="2339" pageHeight="3300" background="none" math="0" shadow="0">
      <root>
        <mxCell id="WIyWlLk6GJQsqaUBKTNV-0" />
        <mxCell id="WIyWlLk6GJQsqaUBKTNV-1" parent="WIyWlLk6GJQsqaUBKTNV-0" />
        <mxCell id="WIyWlLk6GJQsqaUBKTNV-2" value="" style="rounded=0;html=1;jettySize=auto;orthogonalLoop=1;fontSize=11;endArrow=block;endFill=0;endSize=8;strokeWidth=1;shadow=0;labelBackgroundColor=none;edgeStyle=orthogonalEdgeStyle;" parent="WIyWlLk6GJQsqaUBKTNV-1" source="WIyWlLk6GJQsqaUBKTNV-3" target="WIyWlLk6GJQsqaUBKTNV-6" edge="1">
          <mxGeometry relative="1" as="geometry" />
        </mxCell>
        <mxCell id="WIyWlLk6GJQsqaUBKTNV-3" value="User enters the website" style="rounded=1;whiteSpace=wrap;html=1;fontSize=12;glass=0;strokeWidth=1;shadow=0;" parent="WIyWlLk6GJQsqaUBKTNV-1" vertex="1">
          <mxGeometry x="160" y="80" width="120" height="40" as="geometry" />
        </mxCell>
        <mxCell id="WIyWlLk6GJQsqaUBKTNV-4" value="Yes" style="rounded=0;html=1;jettySize=auto;orthogonalLoop=1;fontSize=11;endArrow=block;endFill=0;endSize=8;strokeWidth=1;shadow=0;labelBackgroundColor=none;edgeStyle=orthogonalEdgeStyle;" parent="WIyWlLk6GJQsqaUBKTNV-1" source="WIyWlLk6GJQsqaUBKTNV-6" target="WIyWlLk6GJQsqaUBKTNV-10" edge="1">
          <mxGeometry y="20" relative="1" as="geometry">
            <mxPoint as="offset" />
          </mxGeometry>
        </mxCell>
        <mxCell id="WIyWlLk6GJQsqaUBKTNV-5" value="No" style="edgeStyle=orthogonalEdgeStyle;rounded=0;html=1;jettySize=auto;orthogonalLoop=1;fontSize=11;endArrow=block;endFill=0;endSize=8;strokeWidth=1;shadow=0;labelBackgroundColor=none;" parent="WIyWlLk6GJQsqaUBKTNV-1" source="WIyWlLk6GJQsqaUBKTNV-6" target="WIyWlLk6GJQsqaUBKTNV-7" edge="1">
          <mxGeometry y="10" relative="1" as="geometry">
            <mxPoint as="offset" />
          </mxGeometry>
        </mxCell>
        <mxCell id="WIyWlLk6GJQsqaUBKTNV-6" value="Logged in?" style="rhombus;whiteSpace=wrap;html=1;shadow=0;fontFamily=Helvetica;fontSize=12;align=center;strokeWidth=1;spacing=6;spacingTop=-4;" parent="WIyWlLk6GJQsqaUBKTNV-1" vertex="1">
          <mxGeometry x="170" y="170" width="100" height="80" as="geometry" />
        </mxCell>
        <mxCell id="vPx18XES60b5-4TH0gW--8" value="" style="edgeStyle=orthogonalEdgeStyle;rounded=0;orthogonalLoop=1;jettySize=auto;html=1;fontSize=11;" edge="1" parent="WIyWlLk6GJQsqaUBKTNV-1" source="WIyWlLk6GJQsqaUBKTNV-7" target="vPx18XES60b5-4TH0gW--7">
          <mxGeometry relative="1" as="geometry" />
        </mxCell>
        <mxCell id="WIyWlLk6GJQsqaUBKTNV-7" value="user isn&#39;t logged in" style="rounded=1;whiteSpace=wrap;html=1;fontSize=12;glass=0;strokeWidth=1;shadow=0;" parent="WIyWlLk6GJQsqaUBKTNV-1" vertex="1">
          <mxGeometry x="320" y="190" width="120" height="40" as="geometry" />
        </mxCell>
        <mxCell id="WIyWlLk6GJQsqaUBKTNV-8" value="No" style="rounded=0;html=1;jettySize=auto;orthogonalLoop=1;fontSize=11;endArrow=block;endFill=0;endSize=8;strokeWidth=1;shadow=0;labelBackgroundColor=none;edgeStyle=orthogonalEdgeStyle;" parent="WIyWlLk6GJQsqaUBKTNV-1" source="WIyWlLk6GJQsqaUBKTNV-10" target="WIyWlLk6GJQsqaUBKTNV-11" edge="1">
          <mxGeometry x="0.3333" y="20" relative="1" as="geometry">
            <mxPoint as="offset" />
          </mxGeometry>
        </mxCell>
        <mxCell id="WIyWlLk6GJQsqaUBKTNV-9" value="Yes" style="edgeStyle=orthogonalEdgeStyle;rounded=0;html=1;jettySize=auto;orthogonalLoop=1;fontSize=11;endArrow=block;endFill=0;endSize=8;strokeWidth=1;shadow=0;labelBackgroundColor=none;" parent="WIyWlLk6GJQsqaUBKTNV-1" source="WIyWlLk6GJQsqaUBKTNV-10" target="WIyWlLk6GJQsqaUBKTNV-12" edge="1">
          <mxGeometry y="10" relative="1" as="geometry">
            <mxPoint as="offset" />
          </mxGeometry>
        </mxCell>
        <mxCell id="WIyWlLk6GJQsqaUBKTNV-10" value="&lt;font style=&quot;font-size: 11px&quot;&gt;User is logged in&lt;/font&gt;" style="rhombus;whiteSpace=wrap;html=1;shadow=0;fontFamily=Helvetica;fontSize=12;align=center;strokeWidth=1;spacing=6;spacingTop=-4;" parent="WIyWlLk6GJQsqaUBKTNV-1" vertex="1">
          <mxGeometry x="170" y="290" width="100" height="80" as="geometry" />
        </mxCell>
        <mxCell id="WIyWlLk6GJQsqaUBKTNV-11" value="Repair Lamp" style="rounded=1;whiteSpace=wrap;html=1;fontSize=12;glass=0;strokeWidth=1;shadow=0;" parent="WIyWlLk6GJQsqaUBKTNV-1" vertex="1">
          <mxGeometry x="160" y="430" width="120" height="40" as="geometry" />
        </mxCell>
        <mxCell id="WIyWlLk6GJQsqaUBKTNV-12" value="Replace Bulb" style="rounded=1;whiteSpace=wrap;html=1;fontSize=12;glass=0;strokeWidth=1;shadow=0;" parent="WIyWlLk6GJQsqaUBKTNV-1" vertex="1">
          <mxGeometry x="320" y="310" width="120" height="40" as="geometry" />
        </mxCell>
        <mxCell id="vPx18XES60b5-4TH0gW--10" value="" style="edgeStyle=orthogonalEdgeStyle;rounded=0;orthogonalLoop=1;jettySize=auto;html=1;fontSize=11;" edge="1" parent="WIyWlLk6GJQsqaUBKTNV-1" source="vPx18XES60b5-4TH0gW--7" target="vPx18XES60b5-4TH0gW--9">
          <mxGeometry relative="1" as="geometry" />
        </mxCell>
        <mxCell id="vPx18XES60b5-4TH0gW--78" value="" style="edgeStyle=orthogonalEdgeStyle;rounded=0;orthogonalLoop=1;jettySize=auto;html=1;fontSize=9;" edge="1" parent="WIyWlLk6GJQsqaUBKTNV-1" source="vPx18XES60b5-4TH0gW--7" target="vPx18XES60b5-4TH0gW--77">
          <mxGeometry relative="1" as="geometry" />
        </mxCell>
        <mxCell id="vPx18XES60b5-4TH0gW--7" value="Registered user?" style="rounded=1;whiteSpace=wrap;html=1;fontSize=12;glass=0;strokeWidth=1;shadow=0;" vertex="1" parent="WIyWlLk6GJQsqaUBKTNV-1">
          <mxGeometry x="520" y="190" width="120" height="40" as="geometry" />
        </mxCell>
        <mxCell id="vPx18XES60b5-4TH0gW--12" value="" style="edgeStyle=orthogonalEdgeStyle;rounded=0;orthogonalLoop=1;jettySize=auto;html=1;fontSize=11;" edge="1" parent="WIyWlLk6GJQsqaUBKTNV-1" source="vPx18XES60b5-4TH0gW--9" target="vPx18XES60b5-4TH0gW--11">
          <mxGeometry relative="1" as="geometry">
            <Array as="points">
              <mxPoint x="710" y="90" />
              <mxPoint x="710" y="90" />
            </Array>
          </mxGeometry>
        </mxCell>
        <mxCell id="vPx18XES60b5-4TH0gW--9" value="User is registered" style="rounded=1;whiteSpace=wrap;html=1;fontSize=12;glass=0;strokeWidth=1;shadow=0;" vertex="1" parent="WIyWlLk6GJQsqaUBKTNV-1">
          <mxGeometry x="520" y="70" width="120" height="40" as="geometry" />
        </mxCell>
        <mxCell id="vPx18XES60b5-4TH0gW--14" value="" style="edgeStyle=orthogonalEdgeStyle;rounded=0;orthogonalLoop=1;jettySize=auto;html=1;fontSize=11;" edge="1" parent="WIyWlLk6GJQsqaUBKTNV-1" source="vPx18XES60b5-4TH0gW--11" target="vPx18XES60b5-4TH0gW--13">
          <mxGeometry relative="1" as="geometry" />
        </mxCell>
        <mxCell id="vPx18XES60b5-4TH0gW--22" value="" style="edgeStyle=orthogonalEdgeStyle;rounded=0;orthogonalLoop=1;jettySize=auto;html=1;fontSize=9;" edge="1" parent="WIyWlLk6GJQsqaUBKTNV-1" source="vPx18XES60b5-4TH0gW--11" target="vPx18XES60b5-4TH0gW--21">
          <mxGeometry relative="1" as="geometry" />
        </mxCell>
        <mxCell id="vPx18XES60b5-4TH0gW--11" value="&lt;font style=&quot;font-size: 11px&quot;&gt;Does user remembers his password?&lt;/font&gt;" style="rounded=1;whiteSpace=wrap;html=1;fontSize=12;glass=0;strokeWidth=1;shadow=0;" vertex="1" parent="WIyWlLk6GJQsqaUBKTNV-1">
          <mxGeometry x="720" y="70" width="120" height="40" as="geometry" />
        </mxCell>
        <mxCell id="vPx18XES60b5-4TH0gW--16" value="" style="edgeStyle=orthogonalEdgeStyle;rounded=0;orthogonalLoop=1;jettySize=auto;html=1;fontSize=11;" edge="1" parent="WIyWlLk6GJQsqaUBKTNV-1" source="vPx18XES60b5-4TH0gW--13" target="vPx18XES60b5-4TH0gW--15">
          <mxGeometry relative="1" as="geometry" />
        </mxCell>
        <mxCell id="vPx18XES60b5-4TH0gW--13" value="&lt;font style=&quot;font-size: 11px&quot;&gt;User forgot his password&lt;/font&gt;" style="rounded=1;whiteSpace=wrap;html=1;fontSize=12;glass=0;strokeWidth=1;shadow=0;" vertex="1" parent="WIyWlLk6GJQsqaUBKTNV-1">
          <mxGeometry x="720" y="-50" width="120" height="40" as="geometry" />
        </mxCell>
        <mxCell id="vPx18XES60b5-4TH0gW--18" value="" style="edgeStyle=orthogonalEdgeStyle;rounded=0;orthogonalLoop=1;jettySize=auto;html=1;fontSize=9;" edge="1" parent="WIyWlLk6GJQsqaUBKTNV-1" source="vPx18XES60b5-4TH0gW--15" target="vPx18XES60b5-4TH0gW--17">
          <mxGeometry relative="1" as="geometry" />
        </mxCell>
        <mxCell id="vPx18XES60b5-4TH0gW--15" value="&lt;span style=&quot;font-size: 11px&quot;&gt;Send a mail with new password&amp;nbsp;&lt;/span&gt;&lt;span style=&quot;font-size: 11px&quot;&gt;to the mail address&amp;nbsp;which is in the system&lt;/span&gt;" style="rounded=1;whiteSpace=wrap;html=1;fontSize=12;glass=0;strokeWidth=1;shadow=0;" vertex="1" parent="WIyWlLk6GJQsqaUBKTNV-1">
          <mxGeometry x="920" y="-60" width="120" height="60" as="geometry" />
        </mxCell>
        <mxCell id="vPx18XES60b5-4TH0gW--17" value="&lt;span style=&quot;font-size: 11px&quot;&gt;The mail was sent&lt;/span&gt;" style="rounded=1;whiteSpace=wrap;html=1;fontSize=12;glass=0;strokeWidth=1;shadow=0;" vertex="1" parent="WIyWlLk6GJQsqaUBKTNV-1">
          <mxGeometry x="1120" y="-60" width="120" height="60" as="geometry" />
        </mxCell>
        <mxCell id="vPx18XES60b5-4TH0gW--24" value="" style="edgeStyle=orthogonalEdgeStyle;rounded=0;orthogonalLoop=1;jettySize=auto;html=1;fontSize=9;" edge="1" parent="WIyWlLk6GJQsqaUBKTNV-1" source="vPx18XES60b5-4TH0gW--21" target="vPx18XES60b5-4TH0gW--23">
          <mxGeometry relative="1" as="geometry" />
        </mxCell>
        <mxCell id="vPx18XES60b5-4TH0gW--21" value="&lt;font style=&quot;font-size: 11px&quot;&gt;The user remembers his password&lt;/font&gt;" style="rounded=1;whiteSpace=wrap;html=1;fontSize=12;glass=0;strokeWidth=1;shadow=0;" vertex="1" parent="WIyWlLk6GJQsqaUBKTNV-1">
          <mxGeometry x="920" y="70" width="120" height="40" as="geometry" />
        </mxCell>
        <mxCell id="vPx18XES60b5-4TH0gW--26" value="" style="edgeStyle=orthogonalEdgeStyle;rounded=0;orthogonalLoop=1;jettySize=auto;html=1;fontSize=9;" edge="1" parent="WIyWlLk6GJQsqaUBKTNV-1" source="vPx18XES60b5-4TH0gW--23" target="vPx18XES60b5-4TH0gW--25">
          <mxGeometry relative="1" as="geometry" />
        </mxCell>
        <mxCell id="vPx18XES60b5-4TH0gW--23" value="&lt;font style=&quot;font-size: 11px&quot;&gt;The user types in log in and password&lt;/font&gt;" style="rounded=1;whiteSpace=wrap;html=1;fontSize=12;glass=0;strokeWidth=1;shadow=0;" vertex="1" parent="WIyWlLk6GJQsqaUBKTNV-1">
          <mxGeometry x="1120" y="70" width="120" height="40" as="geometry" />
        </mxCell>
        <mxCell id="vPx18XES60b5-4TH0gW--28" value="" style="edgeStyle=orthogonalEdgeStyle;rounded=0;orthogonalLoop=1;jettySize=auto;html=1;fontSize=9;" edge="1" parent="WIyWlLk6GJQsqaUBKTNV-1" source="vPx18XES60b5-4TH0gW--25" target="vPx18XES60b5-4TH0gW--27">
          <mxGeometry relative="1" as="geometry" />
        </mxCell>
        <mxCell id="vPx18XES60b5-4TH0gW--25" value="&lt;font style=&quot;font-size: 11px&quot;&gt;Data typed in&lt;/font&gt;" style="rounded=1;whiteSpace=wrap;html=1;fontSize=12;glass=0;strokeWidth=1;shadow=0;" vertex="1" parent="WIyWlLk6GJQsqaUBKTNV-1">
          <mxGeometry x="1320" y="70" width="120" height="40" as="geometry" />
        </mxCell>
        <mxCell id="vPx18XES60b5-4TH0gW--39" value="" style="edgeStyle=orthogonalEdgeStyle;rounded=0;orthogonalLoop=1;jettySize=auto;html=1;fontSize=9;" edge="1" parent="WIyWlLk6GJQsqaUBKTNV-1" source="vPx18XES60b5-4TH0gW--27" target="vPx18XES60b5-4TH0gW--38">
          <mxGeometry relative="1" as="geometry" />
        </mxCell>
        <mxCell id="vPx18XES60b5-4TH0gW--27" value="&lt;span style=&quot;font-size: 11px&quot;&gt;Data correct?&lt;/span&gt;" style="rounded=1;whiteSpace=wrap;html=1;fontSize=12;glass=0;strokeWidth=1;shadow=0;arcSize=14;" vertex="1" parent="WIyWlLk6GJQsqaUBKTNV-1">
          <mxGeometry x="1520" y="70" width="120" height="40" as="geometry" />
        </mxCell>
        <mxCell id="vPx18XES60b5-4TH0gW--37" value="" style="edgeStyle=orthogonalEdgeStyle;rounded=0;orthogonalLoop=1;jettySize=auto;html=1;fontSize=9;" edge="1" parent="WIyWlLk6GJQsqaUBKTNV-1" target="vPx18XES60b5-4TH0gW--27">
          <mxGeometry relative="1" as="geometry">
            <mxPoint x="1579.9999999999995" y="176.99999999999955" as="sourcePoint" />
          </mxGeometry>
        </mxCell>
        <mxCell id="vPx18XES60b5-4TH0gW--38" value="&lt;span style=&quot;font-size: 11px&quot;&gt;System&lt;/span&gt;" style="rounded=1;whiteSpace=wrap;html=1;fontSize=12;glass=0;strokeWidth=1;shadow=0;" vertex="1" parent="WIyWlLk6GJQsqaUBKTNV-1">
          <mxGeometry x="1520" y="-50" width="120" height="40" as="geometry" />
        </mxCell>
        <mxCell id="vPx18XES60b5-4TH0gW--55" value="" style="edgeStyle=orthogonalEdgeStyle;rounded=0;orthogonalLoop=1;jettySize=auto;html=1;fontSize=9;" edge="1" parent="WIyWlLk6GJQsqaUBKTNV-1" source="vPx18XES60b5-4TH0gW--48">
          <mxGeometry relative="1" as="geometry">
            <mxPoint x="1715" y="180" as="targetPoint" />
          </mxGeometry>
        </mxCell>
        <mxCell id="vPx18XES60b5-4TH0gW--64" value="" style="edgeStyle=orthogonalEdgeStyle;rounded=0;orthogonalLoop=1;jettySize=auto;html=1;fontSize=9;" edge="1" parent="WIyWlLk6GJQsqaUBKTNV-1" source="vPx18XES60b5-4TH0gW--48" target="vPx18XES60b5-4TH0gW--63">
          <mxGeometry relative="1" as="geometry" />
        </mxCell>
        <mxCell id="vPx18XES60b5-4TH0gW--48" value="" style="line;strokeWidth=2;html=1;labelBackgroundColor=#FFFFFF;fontSize=9;" vertex="1" parent="WIyWlLk6GJQsqaUBKTNV-1">
          <mxGeometry x="1640" y="85" width="150" height="15" as="geometry" />
        </mxCell>
        <mxCell id="vPx18XES60b5-4TH0gW--53" value="Database" style="strokeWidth=2;html=1;shape=mxgraph.flowchart.database;whiteSpace=wrap;labelBackgroundColor=#FFFFFF;fontSize=9;" vertex="1" parent="WIyWlLk6GJQsqaUBKTNV-1">
          <mxGeometry x="1550" y="180" width="60" height="60" as="geometry" />
        </mxCell>
        <mxCell id="vPx18XES60b5-4TH0gW--59" value="&lt;span style=&quot;font-size: 11px&quot;&gt;Data is not correct&lt;/span&gt;" style="rounded=1;whiteSpace=wrap;html=1;fontSize=12;glass=0;strokeWidth=1;shadow=0;arcSize=14;" vertex="1" parent="WIyWlLk6GJQsqaUBKTNV-1">
          <mxGeometry x="1655" y="190" width="120" height="40" as="geometry" />
        </mxCell>
        <mxCell id="vPx18XES60b5-4TH0gW--67" value="" style="edgeStyle=orthogonalEdgeStyle;rounded=0;orthogonalLoop=1;jettySize=auto;html=1;fontSize=9;" edge="1" parent="WIyWlLk6GJQsqaUBKTNV-1" source="vPx18XES60b5-4TH0gW--63" target="vPx18XES60b5-4TH0gW--66">
          <mxGeometry relative="1" as="geometry" />
        </mxCell>
        <mxCell id="vPx18XES60b5-4TH0gW--63" value="Data is correct" style="whiteSpace=wrap;html=1;fontSize=9;verticalAlign=top;strokeWidth=2;labelBackgroundColor=#FFFFFF;spacingTop=8;" vertex="1" parent="WIyWlLk6GJQsqaUBKTNV-1">
          <mxGeometry x="1670" y="-10" width="120" height="37.5" as="geometry" />
        </mxCell>
        <mxCell id="vPx18XES60b5-4TH0gW--69" value="" style="edgeStyle=orthogonalEdgeStyle;rounded=0;orthogonalLoop=1;jettySize=auto;html=1;fontSize=9;" edge="1" parent="WIyWlLk6GJQsqaUBKTNV-1" source="vPx18XES60b5-4TH0gW--66" target="vPx18XES60b5-4TH0gW--68">
          <mxGeometry relative="1" as="geometry" />
        </mxCell>
        <mxCell id="vPx18XES60b5-4TH0gW--66" value="Complete logging in" style="whiteSpace=wrap;html=1;fontSize=9;verticalAlign=top;strokeWidth=2;labelBackgroundColor=#FFFFFF;spacingTop=8;" vertex="1" parent="WIyWlLk6GJQsqaUBKTNV-1">
          <mxGeometry x="1670" y="-127.5" width="120" height="37.5" as="geometry" />
        </mxCell>
        <mxCell id="vPx18XES60b5-4TH0gW--68" value="The user is logged in" style="whiteSpace=wrap;html=1;fontSize=9;verticalAlign=top;strokeWidth=2;labelBackgroundColor=#FFFFFF;spacingTop=8;" vertex="1" parent="WIyWlLk6GJQsqaUBKTNV-1">
          <mxGeometry x="1670" y="-245" width="120" height="37.5" as="geometry" />
        </mxCell>
        <mxCell id="vPx18XES60b5-4TH0gW--73" value="" style="endArrow=none;dashed=1;html=1;rounded=0;fontSize=9;" edge="1" parent="WIyWlLk6GJQsqaUBKTNV-1">
          <mxGeometry width="50" height="50" relative="1" as="geometry">
            <mxPoint x="1714.58" y="290" as="sourcePoint" />
            <mxPoint x="1714.58" y="240" as="targetPoint" />
            <Array as="points">
              <mxPoint x="1714.58" y="270" />
            </Array>
          </mxGeometry>
        </mxCell>
        <mxCell id="vPx18XES60b5-4TH0gW--74" value="" style="endArrow=none;dashed=1;html=1;rounded=0;fontSize=9;" edge="1" parent="WIyWlLk6GJQsqaUBKTNV-1">
          <mxGeometry width="50" height="50" relative="1" as="geometry">
            <mxPoint x="880" y="290" as="sourcePoint" />
            <mxPoint x="1710" y="290" as="targetPoint" />
          </mxGeometry>
        </mxCell>
        <mxCell id="vPx18XES60b5-4TH0gW--75" value="" style="endArrow=none;dashed=1;html=1;rounded=0;fontSize=9;" edge="1" parent="WIyWlLk6GJQsqaUBKTNV-1">
          <mxGeometry width="50" height="50" relative="1" as="geometry">
            <mxPoint x="880" y="290" as="sourcePoint" />
            <mxPoint x="880" y="290" as="targetPoint" />
            <Array as="points">
              <mxPoint x="760" y="290" />
            </Array>
          </mxGeometry>
        </mxCell>
        <mxCell id="vPx18XES60b5-4TH0gW--76" value="" style="endArrow=none;dashed=1;html=1;rounded=0;fontSize=9;entryX=0.314;entryY=1.075;entryDx=0;entryDy=0;entryPerimeter=0;" edge="1" parent="WIyWlLk6GJQsqaUBKTNV-1" target="vPx18XES60b5-4TH0gW--11">
          <mxGeometry width="50" height="50" relative="1" as="geometry">
            <mxPoint x="755" y="290" as="sourcePoint" />
            <mxPoint x="755" y="120" as="targetPoint" />
          </mxGeometry>
        </mxCell>
        <mxCell id="vPx18XES60b5-4TH0gW--80" value="" style="edgeStyle=orthogonalEdgeStyle;rounded=0;orthogonalLoop=1;jettySize=auto;html=1;fontSize=9;" edge="1" parent="WIyWlLk6GJQsqaUBKTNV-1" source="vPx18XES60b5-4TH0gW--77" target="vPx18XES60b5-4TH0gW--79">
          <mxGeometry relative="1" as="geometry" />
        </mxCell>
        <mxCell id="vPx18XES60b5-4TH0gW--77" value="User is not registered" style="rounded=1;whiteSpace=wrap;html=1;fontSize=12;glass=0;strokeWidth=1;shadow=0;" vertex="1" parent="WIyWlLk6GJQsqaUBKTNV-1">
          <mxGeometry x="520" y="310" width="120" height="40" as="geometry" />
        </mxCell>
        <mxCell id="vPx18XES60b5-4TH0gW--82" value="" style="edgeStyle=orthogonalEdgeStyle;rounded=0;orthogonalLoop=1;jettySize=auto;html=1;fontSize=9;" edge="1" parent="WIyWlLk6GJQsqaUBKTNV-1" source="vPx18XES60b5-4TH0gW--79" target="vPx18XES60b5-4TH0gW--81">
          <mxGeometry relative="1" as="geometry" />
        </mxCell>
        <mxCell id="vPx18XES60b5-4TH0gW--79" value="User is not registered" style="rounded=1;whiteSpace=wrap;html=1;fontSize=12;glass=0;strokeWidth=1;shadow=0;" vertex="1" parent="WIyWlLk6GJQsqaUBKTNV-1">
          <mxGeometry x="720" y="310" width="120" height="40" as="geometry" />
        </mxCell>
        <mxCell id="vPx18XES60b5-4TH0gW--81" value="User types in needed data" style="rounded=1;whiteSpace=wrap;html=1;fontSize=12;glass=0;strokeWidth=1;shadow=0;" vertex="1" parent="WIyWlLk6GJQsqaUBKTNV-1">
          <mxGeometry x="720" y="430" width="120" height="40" as="geometry" />
        </mxCell>
        <mxCell id="vPx18XES60b5-4TH0gW--83" value="" style="endArrow=none;dashed=1;html=1;rounded=0;fontSize=9;" edge="1" parent="WIyWlLk6GJQsqaUBKTNV-1">
          <mxGeometry width="50" height="50" relative="1" as="geometry">
            <mxPoint x="850" y="450" as="sourcePoint" />
            <mxPoint x="910" y="450" as="targetPoint" />
            <Array as="points">
              <mxPoint x="880" y="450" />
            </Array>
          </mxGeometry>
        </mxCell>
        <mxCell id="vPx18XES60b5-4TH0gW--84" value="" style="endArrow=none;dashed=1;html=1;rounded=0;fontSize=9;" edge="1" parent="WIyWlLk6GJQsqaUBKTNV-1">
          <mxGeometry width="50" height="50" relative="1" as="geometry">
            <mxPoint x="910" y="510" as="sourcePoint" />
            <mxPoint x="910" y="450" as="targetPoint" />
          </mxGeometry>
        </mxCell>
        <mxCell id="vPx18XES60b5-4TH0gW--87" value="" style="edgeStyle=orthogonalEdgeStyle;rounded=0;orthogonalLoop=1;jettySize=auto;html=1;fontSize=9;" edge="1" parent="WIyWlLk6GJQsqaUBKTNV-1" source="vPx18XES60b5-4TH0gW--85" target="vPx18XES60b5-4TH0gW--86">
          <mxGeometry relative="1" as="geometry" />
        </mxCell>
        <mxCell id="vPx18XES60b5-4TH0gW--85" value="Data typed in" style="shape=hexagon;perimeter=hexagonPerimeter2;whiteSpace=wrap;html=1;fixedSize=1;labelBackgroundColor=#FFFFFF;fontSize=9;" vertex="1" parent="WIyWlLk6GJQsqaUBKTNV-1">
          <mxGeometry x="850" y="510" width="120" height="50" as="geometry" />
        </mxCell>
        <mxCell id="vPx18XES60b5-4TH0gW--86" value="Data correct?" style="shape=process;whiteSpace=wrap;html=1;backgroundOutline=1;fontSize=9;labelBackgroundColor=#FFFFFF;" vertex="1" parent="WIyWlLk6GJQsqaUBKTNV-1">
          <mxGeometry x="865" y="640" width="90" height="60" as="geometry" />
        </mxCell>
        <mxCell id="vPx18XES60b5-4TH0gW--88" value="Data correct?" style="rounded=1;whiteSpace=wrap;html=1;labelBackgroundColor=#FFFFFF;fontSize=9;" vertex="1" parent="WIyWlLk6GJQsqaUBKTNV-1">
          <mxGeometry x="865" y="640" width="90" height="60" as="geometry" />
        </mxCell>
        <mxCell id="vPx18XES60b5-4TH0gW--90" value="" style="edgeStyle=orthogonalEdgeStyle;rounded=0;orthogonalLoop=1;jettySize=auto;html=1;fontSize=9;" edge="1" parent="WIyWlLk6GJQsqaUBKTNV-1" source="vPx18XES60b5-4TH0gW--89" target="vPx18XES60b5-4TH0gW--88">
          <mxGeometry relative="1" as="geometry" />
        </mxCell>
        <mxCell id="vPx18XES60b5-4TH0gW--89" value="System" style="shape=process;whiteSpace=wrap;html=1;backgroundOutline=1;labelBackgroundColor=#FFFFFF;fontSize=9;" vertex="1" parent="WIyWlLk6GJQsqaUBKTNV-1">
          <mxGeometry x="700" y="640" width="120" height="60" as="geometry" />
        </mxCell>
        <mxCell id="vPx18XES60b5-4TH0gW--92" value="" style="edgeStyle=orthogonalEdgeStyle;rounded=0;orthogonalLoop=1;jettySize=auto;html=1;fontSize=9;" edge="1" parent="WIyWlLk6GJQsqaUBKTNV-1" source="vPx18XES60b5-4TH0gW--91" target="vPx18XES60b5-4TH0gW--88">
          <mxGeometry relative="1" as="geometry" />
        </mxCell>
        <mxCell id="vPx18XES60b5-4TH0gW--91" value="Database" style="strokeWidth=2;html=1;shape=mxgraph.flowchart.database;whiteSpace=wrap;labelBackgroundColor=#FFFFFF;fontSize=9;" vertex="1" parent="WIyWlLk6GJQsqaUBKTNV-1">
          <mxGeometry x="880" y="740" width="60" height="60" as="geometry" />
        </mxCell>
      </root>
    </mxGraphModel>
  </diagram>
</mxfile>
